<svg width="19" height="20" viewBox="0 0 19 20" fill="none" xmlns="http://www.w3.org/2000/svg">
<path fill-rule="evenodd" clip-rule="evenodd" d="M0.235352 6.3716V13.4979C0.235352 16.6227 2.77756 19.1649 5.90236 19.1649H13.0287C16.1534 19.1649 18.6956 16.6227 18.6956 13.4979V6.3716C18.6956 3.24679 16.1534 0.70459 13.0287 0.70459H5.90236C2.77756 0.70459 0.235352 3.24679 0.235352 6.3716ZM2.07235 6.6241C2.07235 4.37301 3.90377 2.54159 6.15486 2.54159H12.7762C15.0273 2.54159 16.8586 4.37301 16.8586 6.6241V13.2454C16.8586 15.4965 15.0273 17.3279 12.7762 17.3279H6.15486C3.90377 17.3279 2.07235 15.4965 2.07235 13.2454V6.6241ZM6.93408 9.93473C6.93408 11.3305 8.06967 12.4661 9.46549 12.4661C10.8613 12.4661 11.9969 11.3305 11.9969 9.93473C11.9969 8.53891 10.8613 7.40332 9.46549 7.40332C8.06967 7.40332 6.93408 8.53891 6.93408 9.93473ZM5.26074 9.93473C5.26074 7.61618 7.14694 5.72998 9.46549 5.72998C11.784 5.72998 13.6702 7.61618 13.6702 9.93473C13.6702 12.2533 11.784 14.1395 9.46549 14.1395C7.14694 14.1395 5.26074 12.2533 5.26074 9.93473ZM14.2006 4.05287C14.7955 4.05287 15.2777 4.53508 15.2777 5.12992C15.2777 5.72477 14.7955 6.20698 14.2006 6.20698C13.6058 6.20698 13.1236 5.72477 13.1236 5.12992C13.1236 4.53508 13.6058 4.05287 14.2006 4.05287Z" fill="#B7F111"/>
</svg>
