<svg width="23" height="20" viewBox="0 0 23 20" fill="none" xmlns="http://www.w3.org/2000/svg">
<path d="M20.5803 0.586643C19.9986 0.260728 19.3438 0.0882335 18.6769 0.0842285H4.06451C3.41065 0.0882399 2.76783 0.253709 2.1922 0.565591C2.0869 0.599687 1.98862 0.653841 1.90338 0.726046C0.763154 1.45913 0.0681943 2.71768 0.0531501 4.07351L0 15.3805C0 16.4445 0.422187 17.4644 1.17432 18.2166C1.92645 18.9697 2.94733 19.3919 4.01141 19.3919H18.5807C19.6427 19.3919 20.6606 18.9707 21.4126 18.2206C22.1647 17.4705 22.5889 16.4536 22.592 15.3915V4.0734C22.595 3.3664 22.4094 2.67145 22.0565 2.05869C21.7035 1.44593 21.194 0.938641 20.5803 0.586643ZM18.6338 1.72086H18.9226L13.0179 8.64145C12.6077 9.14587 11.999 9.44572 11.3492 9.46477C10.7023 9.44873 10.0956 9.14687 9.69147 8.64145L3.86095 1.72086H18.6338ZM20.9764 15.3805C20.9644 16.6973 19.8974 17.7603 18.5806 17.7663H4.01139C2.68563 17.7663 1.61058 16.6953 1.60458 15.3695V4.05248C1.60458 3.43875 1.84225 2.84807 2.26745 2.40481L8.41785 9.63629C9.13389 10.5228 10.2099 11.0413 11.3492 11.0483C12.4713 11.0393 13.5303 10.5298 14.2373 9.65734L20.3988 2.4369C20.81 2.88317 21.0386 3.46681 21.0406 4.07353L20.9764 15.3805Z" fill="#B7F111"/>
</svg>
