<svg width="22" height="35" viewBox="0 0 22 35" fill="none" xmlns="http://www.w3.org/2000/svg">
<path d="M16.4233 0.0646973H4.83059C2.1679 0.0646973 0 2.2326 0 4.89528V30.014C0 32.6767 2.1679 34.8446 4.83059 34.8446H16.4233C19.086 34.8446 21.2539 32.6767 21.2539 30.014V4.89528C21.2539 2.2309 19.086 0.0646973 16.4233 0.0646973ZM19.3224 30.0123C19.3224 31.6106 18.0216 32.9113 16.4233 32.9113H4.83059C3.23229 32.9113 1.93156 31.6106 1.93156 30.0123V4.89528C1.93156 3.29699 3.23229 1.99625 4.83059 1.99625H16.4233C18.0216 1.99625 19.3224 3.29699 19.3224 4.89528V30.0123Z" fill="#B7F111"/>
<path d="M10.627 31.9439C11.6938 31.9439 12.5585 31.0791 12.5585 30.0124C12.5585 28.9456 11.6938 28.0808 10.627 28.0808C9.56022 28.0808 8.69543 28.9456 8.69543 30.0124C8.69543 31.0791 9.56022 31.9439 10.627 31.9439Z" fill="#B7F111"/>
<path d="M12.5585 2.96216H8.69368C8.15978 2.96216 7.72791 3.39404 7.72791 3.92794C7.72791 4.46183 8.15978 4.89371 8.69368 4.89371H12.5585C13.0924 4.89371 13.5243 4.46183 13.5243 3.92794C13.5243 3.39404 13.0924 2.96216 12.5585 2.96216Z" fill="#B7F111"/>
</svg>
