<svg width="19" height="20" viewBox="0 0 19 20" fill="none" xmlns="http://www.w3.org/2000/svg">
<path d="M12.8801 9.64374C12.3279 9.17954 11.4974 9.24332 11.0299 9.79335L10.6438 10.2466C10.6295 10.2609 10.6097 10.2664 10.5899 10.2609C10.0806 10.0893 9.13125 9.60745 8.50645 8.30612C8.50095 8.29182 8.50315 8.27532 8.51525 8.26102L8.99705 7.70329C9.46125 7.16537 9.41067 6.34037 8.88155 5.86736L7.80572 4.89604C7.54392 4.65953 7.20072 4.53854 6.85091 4.56053C6.4989 4.58033 6.1755 4.73764 5.93898 5.00274L5.29106 5.73537C5.00067 6.06209 4.82686 6.4845 4.79495 6.92119C4.73005 7.85621 4.85435 10.2411 7.38002 12.2233C7.59452 12.4147 9.41618 13.9833 11.4599 13.9833C11.8604 13.9833 12.2707 13.9239 12.6766 13.7809C13.0033 13.6654 13.2992 13.4652 13.5269 13.2012L14.1605 12.4664C14.3915 12.1991 14.5037 11.8548 14.4762 11.5027C14.4476 11.1507 14.2848 10.8295 14.0142 10.6018L12.8801 9.64374ZM13.308 11.7338L12.6744 12.4686C12.5754 12.5841 12.4467 12.671 12.3059 12.7216C10.3765 13.397 8.14349 11.3983 8.12152 11.3807L8.08962 11.351C6.05127 9.75705 5.85327 7.943 5.91818 7.00046C5.93248 6.80905 6.00838 6.62646 6.13489 6.48565L6.78281 5.75303C6.82791 5.70242 6.88401 5.69142 6.91481 5.68812H6.92581C6.95661 5.68812 7.00721 5.69692 7.05231 5.73653L8.12814 6.70784C8.20404 6.77495 8.20954 6.89375 8.14464 6.97295L7.66284 7.53067C7.35923 7.88598 7.28883 8.38428 7.49123 8.8012C8.29426 10.4743 9.55268 11.1047 10.2314 11.3357C10.6879 11.4908 11.1884 11.3522 11.5019 10.9869L11.888 10.5337C11.9551 10.4545 12.0739 10.4468 12.1531 10.5117L13.2884 11.4721C13.3423 11.5172 13.3533 11.5733 13.3555 11.6019C13.3555 11.6239 13.3531 11.6799 13.308 11.7338Z" fill="#B7F111"/>
<path d="M9.57886 0.119817C7.1313 0.119817 4.83125 1.07463 3.09852 2.80387C0.0625156 5.83987 -0.450291 10.5821 1.83458 14.1836L0.108643 19.5175L5.19953 17.3351C8.75369 19.2722 13.1803 18.6441 16.0611 15.7642C19.635 12.1904 19.635 6.37884 16.0611 2.80468C14.3297 1.07215 12.0285 0.119507 9.57852 0.119507L9.57886 0.119817ZM15.2648 14.967C12.6797 17.552 8.66898 18.0703 5.52062 16.2232L5.27311 16.0758L1.94452 17.5036L3.07424 14.0123L2.91914 13.7846C0.765297 10.6055 1.1756 6.32197 3.89598 3.60165C5.41401 2.08362 7.43268 1.24759 9.5788 1.24759C11.725 1.24759 13.7435 2.08362 15.2616 3.60165C18.3968 6.73227 18.3966 11.833 15.2648 14.967Z" fill="#B7F111"/>
</svg>
