<svg width="396" height="92" viewBox="0 0 396 92" fill="none" xmlns="http://www.w3.org/2000/svg">
<path d="M69.1011 32.7862C68.2768 29.2412 66.4871 25.6596 63.7055 22.7838C62.3245 21.3443 60.7267 20.0741 58.9825 19.0119C57.2305 17.961 55.3461 17.1124 53.3988 16.4174C49.4774 15.0664 45.3379 14.3958 41.1977 14.0752C32.9117 13.4368 24.4163 14.5875 17.2148 17.7699C13.6258 19.3541 10.3567 21.4422 7.79604 24.0514C5.23134 26.6309 3.4023 29.7935 2.8611 33.0282C2.58223 34.6242 2.60463 36.2547 2.89583 37.6665C3.01534 38.3845 3.09621 39.0886 3.3235 39.7537C3.52681 40.4206 3.66493 41.0836 3.97042 41.6806C4.96181 44.143 6.68575 45.9593 8.38362 46.9044C10.0849 47.8745 11.6211 48.1212 12.6286 48.237C13.1386 48.2981 13.5309 48.3028 13.7954 48.305C14.0597 48.3122 14.1961 48.3075 14.1961 48.3075C14.1961 48.3075 14.496 48.2641 14.8497 48.2129C14.9947 48.1836 15.1458 48.1472 15.2897 48.1084L15.3243 50.3374C15.3243 50.3374 15.3741 50.7334 15.4515 51.0808C13.8803 51.8988 12.3111 52.7205 10.7487 53.5586C8.9037 54.5506 7.06551 55.557 5.24501 56.6106C4.33492 57.1389 3.4297 57.6773 2.53371 58.257L1.8633 58.705L1.52901 58.942L1.26442 59.1405C1.15981 59.2194 1.06709 59.3042 0.968644 59.3861C0.576127 59.7147 0.283706 60.0806 0.245132 60.3994C0.214492 60.5484 0.238784 60.7495 0.315933 60.9143L0.630997 61.2799C0.946732 61.3869 1.2834 61.4541 1.60854 61.5432L2.10042 61.6692L2.42183 61.7047C2.79903 61.7392 3.1816 61.786 3.55171 61.8026C4.2989 61.8551 5.03981 61.8839 5.78041 61.9112C7.2596 61.9546 8.73561 61.9804 10.2092 61.9835C11.8055 61.9907 13.4001 61.982 14.9944 61.9647C14.921 62.5368 14.4983 65.9154 14.0941 70.8075C13.987 72.1529 13.8852 73.6126 13.8205 75.1651C13.7699 76.7244 13.7001 78.3482 13.9023 80.1289C13.9301 80.3529 13.9706 80.5844 14.0234 80.8236C14.0551 80.9469 14.083 81.067 14.1299 81.2001C14.1759 81.3308 14.274 81.5824 14.3899 81.7338C14.604 82.0905 15.0132 82.3001 15.4091 82.2774L15.9033 82.2189C16.0326 82.2028 16.1643 82.1859 16.2649 82.1613C17.1425 81.9884 17.9987 81.7814 18.8622 81.5736C20.5808 81.143 22.3181 80.6903 24.0493 80.2219C27.6861 79.2399 31.3052 78.2315 34.6773 77.2782C34.3961 78.1483 34.1643 79.8568 34.1643 83.1372C34.1643 86.2257 34.3697 87.922 34.6284 88.8363C29.4906 89.2612 31.2443 90.0943 31.2443 90.0943H54.0869C54.0869 90.0943 55.266 89.5324 52.8444 89.0961V63.9992C53.0788 63.8595 53.3095 63.7143 53.5357 63.5612C54.3337 63.0182 55.0021 62.3493 55.6037 61.6361C55.9576 61.2132 56.2679 60.7497 56.5507 60.266C56.7575 60.2351 56.9937 60.1817 57.2121 60.1211C57.5516 60.0142 57.838 59.9088 57.838 59.9088C57.838 59.9088 58.3366 59.6834 59.2 59.1571C60.0595 58.6286 61.2683 57.7635 62.5808 56.4389C63.8939 55.119 65.3006 53.3379 66.5763 51.1099C67.925 48.9 68.9158 46.0778 69.4188 42.9611C69.9171 39.8391 69.9405 36.3419 69.1011 32.7862ZM42.6657 88.5932C39.6182 88.5932 37.3541 88.6591 35.6655 88.7628V76.9982C38.3392 76.2401 40.8434 75.5219 43.0286 74.893C47.4196 73.5742 50.5542 72.6328 51.3857 72.383C51.3588 73.643 51.3433 75.0703 51.3433 76.7038C51.3433 84.3147 51.6679 87.6151 52.0152 88.9713C50.3117 88.7547 47.4458 88.5932 42.6657 88.5932ZM54.2146 61.2968C53.6054 61.9846 52.9615 62.5102 52.259 62.9414C51.5724 63.3736 50.8741 63.7069 50.2178 63.8559C49.5545 64.0055 48.9953 63.8863 48.7447 63.4221C48.4525 62.9995 48.4879 62.3604 48.5249 61.8281C48.7835 59.5963 49.219 58.0163 49.7749 57.0459C50.0514 56.5683 50.4678 56.2417 50.885 56.2697C51.2902 56.2851 51.5144 56.4627 51.6793 56.5296C51.9843 56.7041 52.0478 56.654 51.9675 56.4749C51.8968 56.3012 51.6557 55.99 51.2628 55.8036C51.0704 55.7083 50.8431 55.6731 50.6809 55.6663C50.5174 55.6709 50.413 55.6858 50.413 55.6858C49.5852 55.9239 49.2661 56.4658 48.9847 56.88C48.7171 57.3214 48.5278 57.7614 48.3627 58.2016C48.0393 59.0822 47.8198 59.9627 47.6447 60.8582C47.5633 61.3083 47.479 61.7528 47.4563 62.2689C47.4411 62.7443 47.4424 63.3629 47.7828 63.938C48.0541 64.5145 48.7594 64.9784 49.3753 65.0315C49.9948 65.1132 50.5085 64.9854 50.9917 64.8487C51.3534 64.7354 51.6889 64.5933 52.0145 64.4392C51.7558 65.4513 51.5105 67.5498 51.4019 71.6991C51.2364 71.7143 51.0514 71.7352 50.8204 71.7699C49.5276 71.9602 47.1388 72.4961 42.8873 73.6154C38.6193 74.6926 32.4796 76.3808 23.6596 78.7722C21.4548 79.3646 19.4139 79.911 17.5343 80.3642C17.0621 80.4854 16.6088 80.5794 16.1636 80.6759C15.9394 80.7323 15.7129 80.7609 15.5882 80.7788C15.5326 80.794 15.5534 80.7887 15.5356 80.7816L15.5253 80.768C15.5092 80.724 15.4759 80.6245 15.4558 80.5419C15.4113 80.3656 15.3737 80.1748 15.3463 79.978C15.2889 79.586 15.2556 79.1826 15.2323 78.786C15.0955 75.581 15.2867 72.8761 15.3743 70.6912C15.6021 66.3056 15.7209 63.8643 15.68 62.5572C15.6746 62.3153 15.6632 62.1239 15.6492 61.9547C16.7809 61.9405 17.9126 61.9254 19.0446 61.9025C19.0446 61.9025 20.3794 61.5333 18.8361 61.211C18.0655 61.047 16.5772 60.8982 13.8485 60.7747C12.4849 60.7235 10.8119 60.6605 8.76302 60.5835C7.7422 60.5407 6.6277 60.494 5.41139 60.4431C4.80391 60.4157 4.17659 60.3731 3.52583 60.3234C3.19832 60.3028 2.8788 60.2578 2.545 60.226C2.30953 60.2019 2.36372 60.2058 2.35701 60.2036L2.3517 60.1992C2.34541 60.1945 2.36293 60.1892 2.36293 60.1892L2.6498 59.9846L3.03181 59.7252C3.29579 59.555 3.5641 59.3819 3.8365 59.2061C6.69991 57.4381 9.24501 56.0559 11.3694 54.856C13.4998 53.6555 15.2456 52.6718 16.6739 51.867C19.5193 50.2345 21.0567 49.2501 21.8326 48.6471C23.3881 47.4444 21.8955 47.7747 21.8955 47.7747C19.8938 48.7846 17.899 49.8064 15.9096 50.8396C16.0017 50.1975 16.0909 49.0794 16.1653 47.2354C16.2152 45.9962 16.2586 44.4301 16.2915 42.4624C16.3111 40.62 16.3346 38.4019 16.3629 35.7382L16.6289 35.7161C16.8722 35.6881 17.1187 35.6597 17.3687 35.6309C17.8687 35.5725 18.3822 35.5127 18.9097 35.4511C19.9645 35.3256 21.0752 35.1936 22.2445 35.0543C24.582 34.7666 27.154 34.4498 29.9829 34.1015C32.8102 33.7406 35.8942 33.3471 39.257 32.9179C40.0974 32.8085 40.9553 32.697 41.831 32.5833C42.2591 32.5282 42.6916 32.4724 43.1284 32.4162C43.5092 32.3853 43.9283 32.3994 44.3288 32.448C45.1262 32.5628 45.9231 32.8153 46.4782 33.3374C47.045 33.8435 47.3841 34.586 47.5124 35.4431C47.5564 35.8776 47.5935 36.3111 47.5464 36.7616C47.539 37.1908 47.4713 37.6845 47.4194 38.1525C47.3089 39.0985 47.2005 40.026 47.0941 40.9356C47.0313 41.4827 46.9782 42.0138 46.9215 42.5502C40.9891 42.6543 38.0176 42.905 36.6046 43.1701C36.4846 42.9271 36.3408 42.9185 36.2371 42.9616C36.0925 43.0241 35.9909 43.1812 35.9909 43.1812C35.9909 43.1812 35.9876 43.2357 35.9784 43.3145C34.9207 43.6267 35.637 43.9229 35.8161 43.987C35.6509 44.4661 35.2511 45.1339 34.4921 45.5882C33.7508 46.0534 32.5986 46.2058 31.5955 45.7182C30.8962 45.3986 30.3234 44.7587 30.0383 44.0003H30.4205C30.4205 44.0003 30.8367 43.3554 29.8428 42.911C29.8409 41.7284 30.5947 40.6209 31.5955 40.1637C32.5986 39.6759 33.7508 39.8283 34.4921 40.2935C35.259 40.7525 35.6611 41.4309 35.823 41.911C35.9882 42.3994 35.9909 42.7005 35.9909 42.7005C35.9909 42.7005 36.0925 42.8576 36.2371 42.9201C36.3743 42.9771 36.5819 42.9472 36.7116 42.3982C36.7739 42.1229 36.7804 41.7105 36.6133 41.1466C36.4419 40.5922 36.0578 39.8687 35.2262 39.2575C34.4165 38.6574 33.0675 38.2028 31.5206 38.6469C30.7599 38.8731 29.9823 39.338 29.3715 40.073C28.8335 40.7205 28.4591 41.5985 28.3746 42.5716C27.9523 42.5264 27.4537 42.4992 26.854 42.4992C25.9336 42.4992 25.2482 42.5622 24.7266 42.6601C24.7583 42.5877 24.7895 42.5101 24.8159 42.3982C24.8782 42.1229 24.8847 41.7105 24.7176 41.1466C24.5462 40.5922 24.1621 39.8687 23.3305 39.2575C22.5207 38.6574 21.1718 38.2028 19.6248 38.6469C18.8642 38.8731 18.0865 39.338 17.4759 40.073C16.8695 40.8028 16.448 41.8175 16.4439 42.9408C16.448 44.0642 16.8694 45.0789 17.4758 45.8087C18.0865 46.5437 18.8642 47.0086 19.6248 47.2348C21.1718 47.6789 22.5207 47.2243 23.3305 46.6242C24.1621 46.013 24.5462 45.2894 24.7176 44.7352C24.8013 44.453 24.8414 44.2085 24.8527 44.0003H28.4842C28.6544 44.6936 28.9646 45.3189 29.3715 45.8087C29.9823 46.5437 30.7599 47.0086 31.5206 47.2348C33.0675 47.6789 34.4165 47.2243 35.2262 46.6242C36.0578 46.013 36.4419 45.2894 36.6133 44.7352C36.697 44.453 36.737 44.2085 36.7484 44.0003C38.4163 44.0003 42.2542 44.0003 46.7776 44.0003C46.7091 44.754 46.6455 45.5025 46.6055 46.2373C46.529 47.9545 46.4727 49.6112 46.8551 51.2913C46.9673 51.713 47.1064 52.1405 47.3654 52.5636C47.6106 52.9798 48.0742 53.4174 48.6509 53.5517C48.9339 53.6209 49.2031 53.6201 49.4579 53.5982L50.0056 53.5275C50.3631 53.4826 50.7165 53.4381 51.0659 53.3941C52.4387 53.2284 53.7691 53.1616 54.77 53.5412C55.7523 53.9171 56.175 54.8808 56.2619 55.9514C56.5 58.1231 55.4171 59.9589 54.2146 61.2968ZM23.2873 44.0003H23.9145C23.7467 44.4785 23.3488 45.138 22.5965 45.5882C21.8551 46.0534 20.7029 46.2058 19.6998 45.7182C18.6905 45.257 17.9302 44.1347 17.9451 42.9408C17.9302 41.747 18.6905 40.6247 19.6998 40.1637C20.7029 39.6759 21.8551 39.8283 22.5965 40.2935C23.3632 40.7525 23.7654 41.4309 23.9273 41.911C24.0925 42.3994 24.0952 42.7005 24.0952 42.7005C24.0952 42.7005 24.1252 42.745 24.1738 42.7959C22.7912 43.2331 23.2873 44.0003 23.2873 44.0003Z" fill="white"/>
<path d="M20.9685 42.1903C19.5943 42.1903 19.8927 43.6914 19.8927 43.6914H22.0443C22.0443 43.6914 22.3427 42.1903 20.9685 42.1903Z" fill="white"/>
<path d="M32.8643 42.1903C31.49 42.1903 31.7884 43.6914 31.7884 43.6914H33.94C33.94 43.6914 34.2384 42.1903 32.8643 42.1903Z" fill="white"/>
<path d="M26.9492 63.8917C15.5657 65.8839 18.2961 66.9299 18.2961 66.9299L21.7754 66.3211C21.6071 66.7965 21.4331 67.5413 21.2837 68.6995C21.1906 69.4431 21.101 70.349 21.0698 71.4802C21.068 71.6231 21.0661 71.7691 21.0642 71.9182L21.0661 72.148L21.0875 72.5505C21.1195 72.8331 21.1463 73.1489 21.2804 73.3521C21.3446 73.4577 21.4483 73.5044 21.5655 73.5629C21.5887 73.7357 21.7437 73.6981 21.8718 73.721C21.9959 73.7481 22.1486 73.7258 22.3115 73.6881C22.4699 73.6582 22.6302 73.6317 22.7954 73.587C22.9817 73.5386 23.1718 73.4893 23.3658 73.4389C23.7122 73.3419 24.0724 73.2412 24.4469 73.1364C25.1869 72.9104 25.8705 72.7019 26.5021 72.509C26.7269 72.4375 26.947 72.3676 27.1624 72.299L27.1955 72.2885C27.213 72.3076 27.227 72.3214 27.227 72.3214C27.227 72.3214 28.0447 72.3273 29.2711 72.3361C29.8864 72.3303 30.6016 72.3206 31.3887 72.2686C31.5891 72.2508 31.7926 72.2329 31.9987 72.2145C32.1351 72.1983 32.6342 72.1403 32.9554 71.9967C33.1288 71.9257 33.2638 71.8218 33.3734 71.6801C33.4844 71.5374 33.4789 71.3571 33.5375 71.1968L33.4797 70.3388C33.3021 67.8615 33.1249 65.3886 33.0502 64.3482L36.1198 63.8109C36.1198 63.8109 38.3327 61.8997 26.9492 63.8917ZM24.0285 71.6947C23.5244 71.8358 23.0204 71.9769 22.5243 72.1159C22.5209 72.0286 22.5175 71.9428 22.5142 71.8596C22.4874 70.7677 22.5206 69.7106 22.5471 68.8145C22.5998 67.5825 22.64 66.6435 22.6604 66.1662L26.328 65.5244C26.328 66.0532 26.328 66.872 26.328 67.8939C26.328 68.7991 26.328 69.8552 26.328 70.9867C26.8344 70.8819 25.0502 71.3894 24.0285 71.6947ZM31.9786 70.3518C31.9866 70.4578 31.9946 70.562 32.0024 70.664C32.0048 70.6865 32.0076 70.7092 32.0084 70.7027C32.0084 70.7027 32.0127 70.7103 32.01 70.7166L31.9912 70.724L31.8652 70.7446C31.7681 70.7586 31.673 70.772 31.5799 70.7854C31.3869 70.8084 31.202 70.8305 31.0252 70.8516C30.3073 70.9304 29.7045 70.9954 29.2128 71.0698C28.5589 71.1665 28.1091 71.2769 27.7849 71.3933C27.783 71.2626 27.7811 71.1287 27.7792 71.0007C27.7742 70.8562 27.7695 70.7146 27.7647 70.5761C27.7236 69.469 27.665 68.562 27.5946 67.8203C27.4805 66.617 27.3354 65.8543 27.1845 65.3745L32.092 64.5158C31.8625 65.3706 31.7412 67.0661 31.9786 70.3518Z" fill="white"/>
<path d="M95.8529 44.823C95.8529 42.6763 96.5295 41.0196 97.8829 39.853C99.2829 38.6863 101.383 38.103 104.183 38.103V42.303C103.623 42.9563 103.063 43.703 102.503 44.543L102.923 44.823C104.323 42.723 106.12 41.0896 108.313 39.923C110.506 38.7096 112.933 38.103 115.593 38.103C117.973 38.103 120.073 38.6396 121.893 39.713C123.713 40.7863 125.113 42.2563 126.093 44.123C127.12 45.9896 127.633 48.0896 127.633 50.423V69.043C127.633 70.9096 126.91 72.263 125.463 73.103C124.016 73.943 121.823 74.363 118.883 74.363V51.683C118.883 49.9096 118.346 48.463 117.273 47.343C116.246 46.223 114.73 45.663 112.723 45.663C110.343 45.663 108.383 46.4096 106.843 47.903C105.303 49.3496 104.533 51.1696 104.533 53.363V69.043C104.533 70.9096 103.833 72.263 102.433 73.103C101.033 73.943 98.8395 74.363 95.8529 74.363V44.823ZM150.693 74.363C147.8 74.363 145.163 73.803 142.783 72.683C140.403 71.5163 138.513 69.953 137.113 67.993C135.713 65.9863 135.013 63.7463 135.013 61.273V51.963C135.013 49.3496 135.736 46.993 137.183 44.893C138.63 42.793 140.543 41.1363 142.923 39.923C145.35 38.7096 147.963 38.103 150.763 38.103C153.516 38.103 156.036 38.6863 158.323 39.853C160.656 40.973 162.5 42.5596 163.853 44.613C165.206 46.6196 165.883 48.9296 165.883 51.543V55.463C165.883 56.4896 165.486 57.353 164.693 58.053C163.946 58.753 162.99 59.103 161.823 59.103H143.483V60.643C143.483 62.6496 144.09 64.283 145.303 65.543C146.516 66.803 148.336 67.433 150.763 67.433C153.096 67.433 154.823 66.9196 155.943 65.893C157.11 64.8663 157.693 63.5363 157.693 61.903C158.533 61.8096 159.116 61.763 159.443 61.763C161.17 61.763 162.523 62.1596 163.503 62.953C164.483 63.6996 164.973 64.773 164.973 66.173C164.973 67.5263 164.343 68.833 163.083 70.093C161.823 71.353 160.096 72.3796 157.903 73.173C155.71 73.9663 153.306 74.363 150.693 74.363ZM157.973 52.873V51.543C157.973 49.583 157.296 47.9963 155.943 46.783C154.59 45.5696 152.84 44.963 150.693 44.963C148.546 44.963 146.796 45.5696 145.443 46.783C144.136 47.9496 143.483 49.5363 143.483 51.543V52.873H157.973ZM190.61 45.663C187.857 45.663 185.617 46.4096 183.89 47.903C182.164 49.3496 181.3 51.1696 181.3 53.363V69.043C181.3 70.9096 180.6 72.263 179.2 73.103C177.8 73.943 175.607 74.363 172.62 74.363V44.823C172.62 42.6763 173.297 41.0196 174.65 39.853C176.05 38.6863 178.15 38.103 180.95 38.103V42.233C180.25 43.0263 179.69 43.7963 179.27 44.543L179.69 44.823C182.63 40.343 186.317 38.103 190.75 38.103C192.757 38.103 194.274 38.6396 195.3 39.713C196.327 40.7396 196.84 42.0463 196.84 43.633C196.84 44.8463 196.514 45.873 195.86 46.713C194.6 46.013 192.85 45.663 190.61 45.663ZM212.571 74.363C210.051 74.363 207.787 73.8263 205.781 72.753C203.774 71.6796 202.187 70.2096 201.021 68.343C199.854 66.4296 199.271 64.2363 199.271 61.763V50.703C199.271 48.2763 199.877 46.1063 201.091 44.193C202.304 42.2796 203.984 40.7863 206.131 39.713C208.324 38.6396 210.751 38.103 213.411 38.103C215.137 38.103 216.911 38.4763 218.731 39.223C220.597 39.923 222.161 40.8796 223.421 42.093L223.701 41.743C223.467 41.3696 222.954 40.903 222.161 40.343V29.983C222.161 28.1163 222.884 26.6696 224.331 25.643C225.824 24.6163 228.064 24.103 231.051 24.103V68.343C231.051 70.0696 230.397 71.5163 229.091 72.683C227.784 73.803 225.754 74.363 223.001 74.363V70.513C223.607 69.7663 224.051 69.1596 224.331 68.693L223.981 68.413C222.534 70.373 220.924 71.8663 219.151 72.893C217.424 73.873 215.231 74.363 212.571 74.363ZM215.161 66.803C217.261 66.803 218.964 66.313 220.271 65.333C221.624 64.3063 222.301 63.023 222.301 61.483V50.913C222.301 49.4196 221.624 48.183 220.271 47.203C218.964 46.1763 217.237 45.663 215.091 45.663C212.804 45.663 211.031 46.153 209.771 47.133C208.557 48.0663 207.951 49.4196 207.951 51.193V61.133C207.951 62.9996 208.557 64.423 209.771 65.403C211.031 66.3363 212.827 66.803 215.161 66.803ZM239.271 44.823C239.271 42.6763 239.948 41.0196 241.301 39.853C242.701 38.6863 244.801 38.103 247.601 38.103V42.303C247.041 42.9563 246.481 43.703 245.921 44.543L246.341 44.823C247.741 42.723 249.538 41.0896 251.731 39.923C253.924 38.7096 256.351 38.103 259.011 38.103C261.391 38.103 263.491 38.6396 265.311 39.713C267.131 40.7863 268.531 42.2563 269.511 44.123C270.538 45.9896 271.051 48.0896 271.051 50.423V69.043C271.051 70.9096 270.328 72.263 268.881 73.103C267.434 73.943 265.241 74.363 262.301 74.363V51.683C262.301 49.9096 261.764 48.463 260.691 47.343C259.664 46.223 258.148 45.663 256.141 45.663C253.761 45.663 251.801 46.4096 250.261 47.903C248.721 49.3496 247.951 51.1696 247.951 53.363V69.043C247.951 70.9096 247.251 72.263 245.851 73.103C244.451 73.943 242.258 74.363 239.271 74.363V44.823ZM294.111 74.363C291.218 74.363 288.581 73.803 286.201 72.683C283.821 71.5163 281.931 69.953 280.531 67.993C279.131 65.9863 278.431 63.7463 278.431 61.273V51.963C278.431 49.3496 279.154 46.993 280.601 44.893C282.048 42.793 283.961 41.1363 286.341 39.923C288.768 38.7096 291.381 38.103 294.181 38.103C296.934 38.103 299.454 38.6863 301.741 39.853C304.074 40.973 305.918 42.5596 307.271 44.613C308.624 46.6196 309.301 48.9296 309.301 51.543V55.463C309.301 56.4896 308.904 57.353 308.111 58.053C307.364 58.753 306.408 59.103 305.241 59.103H286.901V60.643C286.901 62.6496 287.508 64.283 288.721 65.543C289.934 66.803 291.754 67.433 294.181 67.433C296.514 67.433 298.241 66.9196 299.361 65.893C300.528 64.8663 301.111 63.5363 301.111 61.903C301.951 61.8096 302.534 61.763 302.861 61.763C304.588 61.763 305.941 62.1596 306.921 62.953C307.901 63.6996 308.391 64.773 308.391 66.173C308.391 67.5263 307.761 68.833 306.501 70.093C305.241 71.353 303.514 72.3796 301.321 73.173C299.128 73.9663 296.724 74.363 294.111 74.363ZM301.391 52.873V51.543C301.391 49.583 300.714 47.9963 299.361 46.783C298.008 45.5696 296.258 44.963 294.111 44.963C291.964 44.963 290.214 45.5696 288.861 46.783C287.554 47.9496 286.901 49.5363 286.901 51.543V52.873H301.391ZM327.734 74.363C325.587 74.363 323.791 73.943 322.344 73.103C320.897 72.2163 319.941 70.9563 319.474 69.323L311.424 38.873C311.797 38.6396 312.357 38.453 313.104 38.313C313.851 38.173 314.574 38.103 315.274 38.103C316.674 38.103 317.841 38.4296 318.774 39.083C319.754 39.6896 320.361 40.5063 320.594 41.533L324.724 60.363L323.814 64.213L324.234 64.353L330.534 40.973C330.814 40.133 331.304 39.4563 332.004 38.943C332.704 38.383 333.614 38.103 334.734 38.103C335.901 38.103 336.857 38.383 337.604 38.943C338.351 39.4563 338.841 40.133 339.074 40.973L344.114 60.853L343.064 64.913L343.484 65.053L348.874 41.533C349.107 40.5063 349.714 39.6896 350.694 39.083C351.674 38.4296 352.864 38.103 354.264 38.103C355.011 38.103 355.734 38.173 356.434 38.313C357.181 38.453 357.741 38.6396 358.114 38.873L350.064 69.323C349.644 70.9096 348.617 72.1463 346.984 73.033C345.351 73.9196 343.437 74.363 341.244 74.363L334.104 46.223L333.754 46.363L334.524 49.373L327.734 74.363ZM377.28 74.363C372.8 74.363 369.183 73.5696 366.43 71.983C363.723 70.3496 362.346 68.1796 362.3 65.473C362.3 64.3063 362.766 63.3263 363.7 62.533C364.68 61.7396 366.22 61.3196 368.32 61.273C368.74 63.3263 369.72 64.913 371.26 66.033C372.8 67.1063 374.666 67.643 376.86 67.643C379.24 67.643 381.106 67.3396 382.46 66.733C383.813 66.1263 384.49 65.2163 384.49 64.003C384.49 62.883 383.93 61.9496 382.81 61.203C381.736 60.4563 379.59 59.7096 376.37 58.963C372.87 58.123 370.14 57.283 368.18 56.443C366.266 55.603 364.843 54.5296 363.91 53.223C362.976 51.9163 362.51 50.1896 362.51 48.043C362.51 45.0563 363.77 42.653 366.29 40.833C368.81 39.013 372.263 38.103 376.65 38.103C380.896 38.103 384.42 38.873 387.22 40.413C390.02 41.9063 391.42 43.913 391.42 46.433C391.42 47.693 390.953 48.6263 390.02 49.233C389.086 49.8396 387.546 50.1663 385.4 50.213C384.933 48.3463 384.046 46.9463 382.74 46.013C381.433 45.0796 379.59 44.613 377.21 44.613C375.436 44.613 373.896 44.9163 372.59 45.523C371.33 46.1296 370.7 46.923 370.7 47.903C370.7 48.9296 371.236 49.723 372.31 50.283C373.383 50.843 375.25 51.403 377.91 51.963C383.136 53.083 386.916 54.5763 389.25 56.443C391.63 58.3096 392.82 60.853 392.82 64.073C392.82 67.1996 391.42 69.6963 388.62 71.563C385.866 73.4296 382.086 74.363 377.28 74.363Z" fill="white"/>
</svg>
